<svg xmlns="http://www.w3.org/2000/svg" version="1.1" xmlns:xlink="http://www.w3.org/1999/xlink" xmlns:svgjs="http://svgjs.dev/svgjs" viewBox="0 0 800 800"><defs><linearGradient x1="50%" y1="0%" x2="50%" y2="100%" id="ggglitch-grad"><stop stop-color="hsl(206, 75%, 49%)" stop-opacity="1" offset="45%"></stop><stop stop-color="hsl(331, 90%, 56%)" stop-opacity="1" offset="100%"></stop></linearGradient><clipPath id="SvgjsClipPath1964"><rect width="72.72727272727273" height="800" x="0" y="0"></rect><rect width="72.72727272727273" height="800" x="145.45454545454547" y="0"></rect><rect width="72.72727272727273" height="800" x="290.90909090909093" y="0"></rect><rect width="72.72727272727273" height="800" x="436.3636363636364" y="0"></rect><rect width="72.72727272727273" height="800" x="581.8181818181819" y="0"></rect><rect width="72.72727272727273" height="800" x="727.2727272727274" y="0"></rect><rect width="72.72727272727273" height="800" x="872.7272727272727" y="0"></rect><rect width="72.72727272727273" height="800" x="1018.1818181818182" y="0"></rect><rect width="72.72727272727273" height="800" x="1163.6363636363637" y="0"></rect><rect width="72.72727272727273" height="800" x="1309.0909090909092" y="0"></rect><rect width="72.72727272727273" height="800" x="1454.5454545454547" y="0"></rect><rect width="72.72727272727273" height="800" x="1600.0000000000002" y="0"></rect></clipPath><clipPath id="SvgjsClipPath1965"><rect width="72.72727272727273" height="800" x="72.72727272727273" y="0"></rect><rect width="72.72727272727273" height="800" x="218.1818181818182" y="0"></rect><rect width="72.72727272727273" height="800" x="363.6363636363636" y="0"></rect><rect width="72.72727272727273" height="800" x="509.0909090909091" y="0"></rect><rect width="72.72727272727273" height="800" x="654.5454545454546" y="0"></rect><rect width="72.72727272727273" height="800" x="800" y="0"></rect><rect width="72.72727272727273" height="800" x="945.4545454545455" y="0"></rect><rect width="72.72727272727273" height="800" x="1090.909090909091" y="0"></rect><rect width="72.72727272727273" height="800" x="1236.3636363636365" y="0"></rect><rect width="72.72727272727273" height="800" x="1381.818181818182" y="0"></rect><rect width="72.72727272727273" height="800" x="1527.2727272727275" y="0"></rect></clipPath></defs><g stroke-width="53" stroke="url(#ggglitch-grad)" fill="none"><circle r="326" cx="400" cy="400" fill="none" opacity="1" clip-path="url(&quot;#SvgjsClipPath1964&quot;)"></circle><circle r="233" cx="400" cy="400" fill="none" opacity="1" clip-path="url(&quot;#SvgjsClipPath1964&quot;)"></circle><circle r="140" cx="400" cy="400" fill="none" opacity="1" clip-path="url(&quot;#SvgjsClipPath1964&quot;)"></circle><circle r="47" cx="400" cy="400" fill="none" opacity="1" clip-path="url(&quot;#SvgjsClipPath1964&quot;)"></circle><circle r="373.5" cx="400" cy="400" fill="none" clip-path="url(&quot;#SvgjsClipPath1965&quot;)"></circle><circle r="280.5" cx="400" cy="400" fill="none" clip-path="url(&quot;#SvgjsClipPath1965&quot;)"></circle><circle r="187.5" cx="400" cy="400" fill="none" clip-path="url(&quot;#SvgjsClipPath1965&quot;)"></circle><circle r="94.5" cx="400" cy="400" fill="none" clip-path="url(&quot;#SvgjsClipPath1965&quot;)"></circle></g></svg>