<svg xmlns="http://www.w3.org/2000/svg" version="1.1" xmlns:xlink="http://www.w3.org/1999/xlink" xmlns:svgjs="http://svgjs.dev/svgjs" viewBox="0 0 800 800"><circle r="8" cx="687" cy="117" stroke-width="2" stroke="hsl(144, 50%, 50%)" fill="none" opacity="0.25"></circle><circle r="11" cx="261" cy="169" stroke-width="2" stroke="hsl(240, 50%, 50%)" fill="none" opacity="0.24"></circle><circle r="8.5" cx="587" cy="377" fill="hsl(113, 50%, 50%)" opacity="0.25"></circle><circle r="11.5" cx="94" cy="732" fill="hsl(268, 50%, 50%)" opacity="0.84"></circle><circle r="15.5" cx="22" cy="777" fill="hsl(308, 50%, 50%)" opacity="0.34"></circle><circle r="7.5" cx="649" cy="194" fill="hsl(108, 50%, 50%)" opacity="0.42"></circle><circle r="9" cx="497" cy="715" fill="hsl(142, 50%, 50%)" opacity="0.90"></circle><circle r="10.5" cx="432" cy="497" fill="hsl(157, 50%, 50%)" opacity="0.79"></circle><circle r="10.5" cx="127" cy="669" stroke-width="2" stroke="hsl(262, 50%, 50%)" fill="none" opacity="0.70"></circle><circle r="10.5" cx="148" cy="109" stroke-width="2" stroke="hsl(197, 50%, 50%)" fill="none" opacity="0.15"></circle><circle r="6" cx="602" cy="546" fill="hsl(108, 50%, 50%)" opacity="0.86"></circle><circle r="11.5" cx="256" cy="779" stroke-width="2" stroke="hsl(250, 50%, 50%)" fill="none" opacity="0.38"></circle><circle r="7.5" cx="529" cy="189" fill="hsl(130, 50%, 50%)" opacity="0.42"></circle><circle r="11" cx="79" cy="168" fill="hsl(263, 50%, 50%)" opacity="0.81"></circle><circle r="12.5" cx="92" cy="519" fill="hsl(268, 50%, 50%)" opacity="0.64"></circle><circle r="8.5" cx="447" cy="447" stroke-width="2" stroke="hsl(154, 50%, 50%)" fill="none" opacity="0.92"></circle><circle r="12" cx="293" cy="452" stroke-width="2" stroke="hsl(231, 50%, 50%)" fill="none" opacity="0.78"></circle><circle r="11.5" cx="102" cy="91" fill="hsl(200, 50%, 50%)" opacity="0.16"></circle><circle r="10" cx="138" cy="702" stroke-width="2" stroke="hsl(262, 50%, 50%)" fill="none" opacity="0.38"></circle><circle r="8.5" cx="496" cy="406" stroke-width="2" stroke="hsl(142, 50%, 50%)" fill="none" opacity="0.36"></circle><circle r="11" cx="17" cy="521" fill="hsl(308, 50%, 50%)" opacity="0.90"></circle><circle r="8" cx="785" cy="497" fill="hsl(226, 50%, 50%)" opacity="0.77"></circle><circle r="11.5" cx="99" cy="564" stroke-width="2" stroke="hsl(268, 50%, 50%)" fill="none" opacity="0.32"></circle><circle r="12.5" cx="222" cy="458" stroke-width="2" stroke="hsl(261, 50%, 50%)" fill="none" opacity="0.91"></circle><circle r="13.5" cx="182" cy="548" fill="hsl(263, 50%, 50%)" opacity="0.43"></circle><circle r="6.5" cx="733" cy="537" stroke-width="2" stroke="hsl(167, 50%, 50%)" fill="none" opacity="0.45"></circle><circle r="7.5" cx="587" cy="726" fill="hsl(113, 50%, 50%)" opacity="0.91"></circle><circle r="10.5" cx="55" cy="488" fill="hsl(284, 50%, 50%)" opacity="0.55"></circle><circle r="10" cx="281" cy="129" fill="hsl(222, 50%, 50%)" opacity="0.85"></circle><circle r="7.5" cx="693" cy="316" stroke-width="2" stroke="hsl(132, 50%, 50%)" fill="none" opacity="0.53"></circle><circle r="11" cx="51" cy="528" stroke-width="2" stroke="hsl(284, 50%, 50%)" fill="none" opacity="0.84"></circle><circle r="10" cx="779" cy="536" fill="hsl(226, 50%, 50%)" opacity="0.19"></circle><circle r="12.5" cx="39" cy="333" stroke-width="2" stroke="hsl(292, 50%, 50%)" fill="none" opacity="0.92"></circle><circle r="11.5" cx="121" cy="351" fill="hsl(263, 50%, 50%)" opacity="0.42"></circle><circle r="12" cx="52" cy="631" stroke-width="2" stroke="hsl(284, 50%, 50%)" fill="none" opacity="0.75"></circle><circle r="9.5" cx="292" cy="708" fill="hsl(231, 50%, 50%)" opacity="0.33"></circle><circle r="9" cx="609" cy="112" fill="hsl(174, 50%, 50%)" opacity="0.34"></circle><circle r="8.5" cx="466" cy="592" stroke-width="2" stroke="hsl(148, 50%, 50%)" fill="none" opacity="0.91"></circle><circle r="9" cx="728" cy="52" fill="hsl(194, 50%, 50%)" opacity="0.16"></circle><circle r="9.5" cx="344" cy="18" fill="hsl(221, 50%, 50%)" opacity="0.59"></circle><circle r="8" cx="398" cy="257" fill="hsl(170, 50%, 50%)" opacity="0.44"></circle><circle r="7.5" cx="418" cy="637" fill="hsl(161, 50%, 50%)" opacity="0.86"></circle><circle r="13" cx="178" cy="594" stroke-width="2" stroke="hsl(263, 50%, 50%)" fill="none" opacity="0.93"></circle><circle r="9" cx="285" cy="56" stroke-width="2" stroke="hsl(195, 50%, 50%)" fill="none" opacity="0.92"></circle><circle r="6" cx="696" cy="503" stroke-width="2" stroke="hsl(132, 50%, 50%)" fill="none" opacity="0.60"></circle><circle r="12" cx="575" cy="66" fill="hsl(254, 50%, 50%)" opacity="0.96"></circle><circle r="7.5" cx="680" cy="357" fill="hsl(123, 50%, 50%)" opacity="0.30"></circle><circle r="6.5" cx="663" cy="432" fill="hsl(116, 50%, 50%)" opacity="0.81"></circle><circle r="12.5" cx="56" cy="383" stroke-width="2" stroke="hsl(284, 50%, 50%)" fill="none" opacity="0.97"></circle><circle r="6.5" cx="677" cy="397" fill="hsl(123, 50%, 50%)" opacity="0.49"></circle><circle r="10.5" cx="297" cy="406" stroke-width="2" stroke="hsl(231, 50%, 50%)" fill="none" opacity="0.48"></circle><circle r="6" cx="594" cy="325" fill="hsl(110, 50%, 50%)" opacity="0.66"></circle><circle r="9.5" cx="146" cy="62" fill="hsl(150, 50%, 50%)" opacity="0.33"></circle><circle r="12.5" cx="20" cy="451" fill="hsl(308, 50%, 50%)" opacity="0.28"></circle><circle r="13" cx="20" cy="130" stroke-width="2" stroke="hsl(297, 50%, 50%)" fill="none" opacity="0.27"></circle><circle r="9.5" cx="379" cy="621" stroke-width="2" stroke="hsl(175, 50%, 50%)" fill="none" opacity="0.45"></circle><circle r="10" cx="286" cy="371" stroke-width="2" stroke="hsl(238, 50%, 50%)" fill="none" opacity="0.28"></circle><circle r="10.5" cx="780" cy="613" stroke-width="2" stroke="hsl(226, 50%, 50%)" fill="none" opacity="0.73"></circle><circle r="8.5" cx="736" cy="678" fill="hsl(167, 50%, 50%)" opacity="0.48"></circle><circle r="7" cx="581" cy="623" stroke-width="2" stroke="hsl(113, 50%, 50%)" fill="none" opacity="0.24"></circle><circle r="6.5" cx="655" cy="603" stroke-width="2" stroke="hsl(111, 50%, 50%)" fill="none" opacity="0.40"></circle><circle r="11.5" cx="161" cy="263" fill="hsl(262, 50%, 50%)" opacity="0.62"></circle><circle r="12" cx="105" cy="266" stroke-width="2" stroke="hsl(265, 50%, 50%)" fill="none" opacity="0.53"></circle><circle r="11.5" cx="779" cy="697" fill="hsl(226, 50%, 50%)" opacity="0.65"></circle><circle r="13" cx="97" cy="388" fill="hsl(268, 50%, 50%)" opacity="0.79"></circle><circle r="9.5" cx="295" cy="92" stroke-width="2" stroke="hsl(214, 50%, 50%)" fill="none" opacity="0.89"></circle><circle r="10.5" cx="64" cy="560" fill="hsl(278, 50%, 50%)" opacity="0.22"></circle><circle r="11.5" cx="132" cy="586" stroke-width="2" stroke="hsl(262, 50%, 50%)" fill="none" opacity="0.83"></circle><circle r="12" cx="497" cy="113" fill="hsl(231, 50%, 50%)" opacity="0.70"></circle><circle r="9.5" cx="342" cy="92" fill="hsl(227, 50%, 50%)" opacity="0.12"></circle><circle r="11" cx="70" cy="129" stroke-width="2" stroke="hsl(254, 50%, 50%)" fill="none" opacity="0.96"></circle><circle r="8" cx="187" cy="93" fill="hsl(184, 50%, 50%)" opacity="0.82"></circle><circle r="8.5" cx="386" cy="292" stroke-width="2" stroke="hsl(175, 50%, 50%)" fill="none" opacity="0.76"></circle><circle r="8.5" cx="205" cy="123" fill="hsl(209, 50%, 50%)" opacity="0.86"></circle><circle r="8" cx="543" cy="715" stroke-width="2" stroke="hsl(125, 50%, 50%)" fill="none" opacity="0.29"></circle><circle r="11" cx="540" cy="21" fill="hsl(325, 50%, 50%)" opacity="0.78"></circle><circle r="12" cx="80" cy="206" fill="hsl(272, 50%, 50%)" opacity="0.68"></circle><circle r="6.5" cx="586" cy="473" stroke-width="2" stroke="hsl(113, 50%, 50%)" fill="none" opacity="0.49"></circle><circle r="12" cx="18" cy="302" stroke-width="2" stroke="hsl(308, 50%, 50%)" fill="none" opacity="0.64"></circle><circle r="14.5" cx="30" cy="732" stroke-width="2" stroke="hsl(300, 50%, 50%)" fill="none" opacity="0.83"></circle><circle r="8" cx="540" cy="632" stroke-width="2" stroke="hsl(125, 50%, 50%)" fill="none" opacity="0.65"></circle><circle r="9.5" cx="391" cy="17" stroke-width="2" stroke="hsl(261, 50%, 50%)" fill="none" opacity="0.44"></circle><circle r="7" cx="603" cy="152" stroke-width="2" stroke="hsl(127, 50%, 50%)" fill="none" opacity="0.84"></circle><circle r="9.5" cx="505" cy="157" fill="hsl(177, 50%, 50%)" opacity="0.18"></circle><circle r="8" cx="697" cy="728" fill="hsl(132, 50%, 50%)" opacity="0.89"></circle><circle r="7.5" cx="199" cy="59" fill="hsl(154, 50%, 50%)" opacity="0.98"></circle><circle r="9.5" cx="349" cy="273" fill="hsl(197, 50%, 50%)" opacity="0.28"></circle><circle r="11.5" cx="229" cy="312" stroke-width="2" stroke="hsl(259, 50%, 50%)" fill="none" opacity="0.75"></circle><circle r="9" cx="752" cy="391" stroke-width="2" stroke="hsl(196, 50%, 50%)" fill="none" opacity="0.88"></circle><circle r="11.5" cx="133" cy="542" fill="hsl(262, 50%, 50%)" opacity="0.40"></circle><circle r="10" cx="160" cy="783" fill="hsl(262, 50%, 50%)" opacity="0.75"></circle><circle r="11.5" cx="74" cy="701" stroke-width="2" stroke="hsl(278, 50%, 50%)" fill="none" opacity="0.23"></circle><circle r="10.5" cx="15" cy="599" stroke-width="2" stroke="hsl(308, 50%, 50%)" fill="none" opacity="0.84"></circle><circle r="6.5" cx="605" cy="192" stroke-width="2" stroke="hsl(108, 50%, 50%)" fill="none" opacity="0.47"></circle><circle r="7" cx="722" cy="485" fill="hsl(154, 50%, 50%)" opacity="0.82"></circle><circle r="10" cx="781" cy="310" stroke-width="2" stroke="hsl(226, 50%, 50%)" fill="none" opacity="0.45"></circle><circle r="8.5" cx="336" cy="210" fill="hsl(206, 50%, 50%)" opacity="0.59"></circle><circle r="9.5" cx="568" cy="109" fill="hsl(204, 50%, 50%)" opacity="0.50"></circle><circle r="6.5" cx="562" cy="308" fill="hsl(121, 50%, 50%)" opacity="0.52"></circle><circle r="12" cx="444" cy="60" fill="hsl(291, 50%, 50%)" opacity="0.55"></circle><circle r="9" cx="489" cy="455" stroke-width="2" stroke="hsl(142, 50%, 50%)" fill="none" opacity="0.22"></circle><circle r="8.5" cx="568" cy="774" fill="hsl(117, 50%, 50%)" opacity="0.76"></circle><circle r="10" cx="219" cy="157" stroke-width="2" stroke="hsl(237, 50%, 50%)" fill="none" opacity="0.27"></circle><circle r="8.5" cx="544" cy="139" fill="hsl(174, 50%, 50%)" opacity="0.34"></circle><circle r="12" cx="778" cy="73" stroke-width="2" stroke="hsl(224, 50%, 50%)" fill="none" opacity="0.78"></circle><circle r="8.5" cx="455" cy="685" stroke-width="2" stroke="hsl(151, 50%, 50%)" fill="none" opacity="1.00"></circle><circle r="6.5" cx="640" cy="376" stroke-width="2" stroke="hsl(108, 50%, 50%)" fill="none" opacity="0.94"></circle><circle r="11" cx="311" cy="291" fill="hsl(223, 50%, 50%)" opacity="0.50"></circle><circle r="11.5" cx="251" cy="351" stroke-width="2" stroke="hsl(250, 50%, 50%)" fill="none" opacity="0.35"></circle><circle r="9" cx="415" cy="418" fill="hsl(161, 50%, 50%)" opacity="0.49"></circle><circle r="9.5" cx="727" cy="93" stroke-width="2" stroke="hsl(180, 50%, 50%)" fill="none" opacity="0.71"></circle><circle r="7.5" cx="722" cy="341" stroke-width="2" stroke="hsl(154, 50%, 50%)" fill="none" opacity="0.18"></circle><circle r="7.5" cx="450" cy="352" fill="hsl(154, 50%, 50%)" opacity="0.60"></circle><circle r="12.5" cx="617" cy="21" fill="hsl(265, 50%, 50%)" opacity="0.13"></circle><circle r="7.5" cx="785" cy="359" fill="hsl(226, 50%, 50%)" opacity="0.96"></circle><circle r="12" cx="330" cy="538" stroke-width="2" stroke="hsl(206, 50%, 50%)" fill="none" opacity="0.52"></circle><circle r="5.5" cx="743" cy="570" stroke-width="2" stroke="hsl(181, 50%, 50%)" fill="none" opacity="0.17"></circle><circle r="11" cx="142" cy="624" stroke-width="2" stroke="hsl(262, 50%, 50%)" fill="none" opacity="0.57"></circle><circle r="10" cx="385" cy="92" stroke-width="2" stroke="hsl(238, 50%, 50%)" fill="none" opacity="0.65"></circle><circle r="9.5" cx="506" cy="549" fill="hsl(138, 50%, 50%)" opacity="0.45"></circle><circle r="14.5" cx="225" cy="527" stroke-width="2" stroke="hsl(259, 50%, 50%)" fill="none" opacity="0.63"></circle><circle r="9.5" cx="246" cy="122" stroke-width="2" stroke="hsl(214, 50%, 50%)" fill="none" opacity="0.31"></circle><circle r="6" cx="590" cy="510" stroke-width="2" stroke="hsl(110, 50%, 50%)" fill="none" opacity="0.57"></circle><circle r="11.5" cx="143" cy="391" fill="hsl(262, 50%, 50%)" opacity="0.41"></circle><circle r="10" cx="739" cy="720" stroke-width="2" stroke="hsl(181, 50%, 50%)" fill="none" opacity="0.69"></circle><circle r="6.5" cx="623" cy="411" fill="hsl(107, 50%, 50%)" opacity="0.45"></circle><circle r="13.5" cx="205" cy="353" stroke-width="2" stroke="hsl(262, 50%, 50%)" fill="none" opacity="0.53"></circle><circle r="15" cx="24" cy="687" stroke-width="2" stroke="hsl(308, 50%, 50%)" fill="none" opacity="0.57"></circle><circle r="11.5" cx="302" cy="631" stroke-width="2" stroke="hsl(223, 50%, 50%)" fill="none" opacity="0.31"></circle><circle r="12" cx="18" cy="643" fill="hsl(308, 50%, 50%)" opacity="0.65"></circle><circle r="12.5" cx="186" cy="433" fill="hsl(263, 50%, 50%)" opacity="0.45"></circle><circle r="6.5" cx="698" cy="543" stroke-width="2" stroke="hsl(132, 50%, 50%)" fill="none" opacity="0.79"></circle><circle r="14.5" cx="67" cy="774" fill="hsl(278, 50%, 50%)" opacity="0.12"></circle><circle r="8" cx="582" cy="428" stroke-width="2" stroke="hsl(113, 50%, 50%)" fill="none" opacity="0.93"></circle><circle r="8" cx="477" cy="303" fill="hsl(145, 50%, 50%)" opacity="0.85"></circle><circle r="12" cx="171" cy="223" fill="hsl(263, 50%, 50%)" opacity="0.24"></circle><circle r="8.5" cx="758" cy="475" stroke-width="2" stroke="hsl(196, 50%, 50%)" fill="none" opacity="0.35"></circle><circle r="8.5" cx="97" cy="48" fill="hsl(159, 50%, 50%)" opacity="0.28"></circle><circle r="7" cx="625" cy="709" fill="hsl(107, 50%, 50%)" opacity="0.66"></circle><circle r="11" cx="185" cy="187" stroke-width="2" stroke="hsl(255, 50%, 50%)" fill="none" opacity="0.54"></circle><circle r="9" cx="771" cy="782" stroke-width="2" stroke="hsl(211, 50%, 50%)" fill="none" opacity="0.56"></circle><circle r="6" cx="766" cy="575" stroke-width="2" stroke="hsl(211, 50%, 50%)" fill="none" opacity="0.63"></circle><circle r="13" cx="431" cy="20" stroke-width="2" stroke="hsl(294, 50%, 50%)" fill="none" opacity="0.90"></circle><circle r="6.5" cx="713" cy="572" fill="hsl(154, 50%, 50%)" opacity="0.31"></circle><circle r="10.5" cx="46" cy="100" fill="hsl(254, 50%, 50%)" opacity="0.46"></circle><circle r="7" cx="568" cy="670" fill="hsl(117, 50%, 50%)" opacity="0.16"></circle><circle r="7" cx="696" cy="676" stroke-width="2" stroke="hsl(132, 50%, 50%)" fill="none" opacity="0.30"></circle><circle r="12" cx="117" cy="141" stroke-width="2" stroke="hsl(235, 50%, 50%)" fill="none" opacity="0.64"></circle><circle r="11.5" cx="308" cy="248" fill="hsl(223, 50%, 50%)" opacity="0.60"></circle><circle r="14" cx="28" cy="174" fill="hsl(295, 50%, 50%)" opacity="0.49"></circle><circle r="5" cx="589" cy="239" fill="hsl(110, 50%, 50%)" opacity="0.25"></circle><circle r="8.5" cx="653" cy="148" stroke-width="2" stroke="hsl(126, 50%, 50%)" fill="none" opacity="0.52"></circle><circle r="12.5" cx="261" cy="619" fill="hsl(250, 50%, 50%)" opacity="0.72"></circle><circle r="7.5" cx="677" cy="780" fill="hsl(123, 50%, 50%)" opacity="0.11"></circle><circle r="13" cx="161" cy="346" stroke-width="2" stroke="hsl(262, 50%, 50%)" fill="none" opacity="0.86"></circle><circle r="11" cx="259" cy="214" fill="hsl(250, 50%, 50%)" opacity="0.86"></circle><circle r="6.5" cx="664" cy="561" stroke-width="2" stroke="hsl(116, 50%, 50%)" fill="none" opacity="0.13"></circle><circle r="8" cx="734" cy="303" stroke-width="2" stroke="hsl(167, 50%, 50%)" fill="none" opacity="0.16"></circle><circle r="11" cx="243" cy="78" stroke-width="2" stroke="hsl(191, 50%, 50%)" fill="none" opacity="0.50"></circle><circle r="8.5" cx="765" cy="230" stroke-width="2" stroke="hsl(211, 50%, 50%)" fill="none" opacity="0.72"></circle><circle r="7.5" cx="617" cy="777" fill="hsl(107, 50%, 50%)" opacity="0.75"></circle><circle r="10.5" cx="187" cy="758" fill="hsl(263, 50%, 50%)" opacity="0.30"></circle><circle r="7" cx="606" cy="673" fill="hsl(108, 50%, 50%)" opacity="0.53"></circle><circle r="11.5" cx="166" cy="150" stroke-width="2" stroke="hsl(237, 50%, 50%)" fill="none" opacity="0.15"></circle><circle r="9.5" cx="299" cy="162" stroke-width="2" stroke="hsl(225, 50%, 50%)" fill="none" opacity="0.14"></circle><circle r="9.5" cx="495" cy="356" stroke-width="2" stroke="hsl(142, 50%, 50%)" fill="none" opacity="0.61"></circle><circle r="12.5" cx="136" cy="746" fill="hsl(262, 50%, 50%)" opacity="0.34"></circle><circle r="8.5" cx="752" cy="643" stroke-width="2" stroke="hsl(196, 50%, 50%)" fill="none" opacity="0.58"></circle><circle r="6" cx="565" cy="263" fill="hsl(117, 50%, 50%)" opacity="0.45"></circle><circle r="10" cx="376" cy="512" fill="hsl(175, 50%, 50%)" opacity="0.92"></circle><circle r="7.5" cx="544" cy="587" stroke-width="2" stroke="hsl(125, 50%, 50%)" fill="none" opacity="0.28"></circle><circle r="11.5" cx="215" cy="781" fill="hsl(261, 50%, 50%)" opacity="0.32"></circle><circle r="11" cx="300" cy="331" stroke-width="2" stroke="hsl(231, 50%, 50%)" fill="none" opacity="0.91"></circle><circle r="10" cx="681" cy="68" stroke-width="2" stroke="hsl(176, 50%, 50%)" fill="none" opacity="0.69"></circle><circle r="8" cx="506" cy="598" stroke-width="2" stroke="hsl(138, 50%, 50%)" fill="none" opacity="0.73"></circle><circle r="8.5" cx="747" cy="162" fill="hsl(183, 50%, 50%)" opacity="0.36"></circle><circle r="13.5" cx="480" cy="73" fill="hsl(294, 50%, 50%)" opacity="0.98"></circle><circle r="10.5" cx="268" cy="742" stroke-width="2" stroke="hsl(245, 50%, 50%)" fill="none" opacity="0.44"></circle><circle r="11" cx="129" cy="428" stroke-width="2" stroke="hsl(262, 50%, 50%)" fill="none" opacity="0.16"></circle><circle r="8" cx="714" cy="636" stroke-width="2" stroke="hsl(154, 50%, 50%)" fill="none" opacity="0.76"></circle><circle r="9" cx="316" cy="738" fill="hsl(214, 50%, 50%)" opacity="0.38"></circle><circle r="8" cx="448" cy="192" fill="hsl(154, 50%, 50%)" opacity="0.64"></circle><circle r="10" cx="361" cy="129" fill="hsl(215, 50%, 50%)" opacity="0.51"></circle><circle r="9" cx="348" cy="750" stroke-width="2" stroke="hsl(197, 50%, 50%)" fill="none" opacity="0.45"></circle><circle r="11.5" cx="245" cy="666" stroke-width="2" stroke="hsl(255, 50%, 50%)" fill="none" opacity="0.70"></circle><circle r="8.5" cx="519" cy="317" fill="hsl(134, 50%, 50%)" opacity="0.46"></circle><circle r="7.5" cx="471" cy="244" fill="hsl(148, 50%, 50%)" opacity="0.30"></circle><circle r="9.5" cx="403" cy="548" stroke-width="2" stroke="hsl(165, 50%, 50%)" fill="none" opacity="0.37"></circle><circle r="11" cx="84" cy="602" stroke-width="2" stroke="hsl(272, 50%, 50%)" fill="none" opacity="0.60"></circle><circle r="13" cx="441" cy="105" stroke-width="2" stroke="hsl(248, 50%, 50%)" fill="none" opacity="0.38"></circle><circle r="10" cx="341" cy="655" stroke-width="2" stroke="hsl(197, 50%, 50%)" fill="none" opacity="0.21"></circle><circle r="12.5" cx="175" cy="643" fill="hsl(263, 50%, 50%)" opacity="0.54"></circle><circle r="8.5" cx="784" cy="147" fill="hsl(224, 50%, 50%)" opacity="0.80"></circle><circle r="11" cx="218" cy="732" stroke-width="2" stroke="hsl(261, 50%, 50%)" fill="none" opacity="0.53"></circle><circle r="9.5" cx="371" cy="712" stroke-width="2" stroke="hsl(182, 50%, 50%)" fill="none" opacity="0.87"></circle><circle r="14.5" cx="65" cy="294" fill="hsl(278, 50%, 50%)" opacity="0.38"></circle><circle r="12" cx="123" cy="231" fill="hsl(263, 50%, 50%)" opacity="0.23"></circle><circle r="13" cx="191" cy="492" stroke-width="2" stroke="hsl(263, 50%, 50%)" fill="none" opacity="0.39"></circle><circle r="11" cx="623" cy="64" stroke-width="2" stroke="hsl(209, 50%, 50%)" fill="none" opacity="0.81"></circle><circle r="11.5" cx="227" cy="396" fill="hsl(259, 50%, 50%)" opacity="0.89"></circle><circle r="10.5" cx="465" cy="145" stroke-width="2" stroke="hsl(203, 50%, 50%)" fill="none" opacity="0.68"></circle><circle r="11" cx="104" cy="633" stroke-width="2" stroke="hsl(265, 50%, 50%)" fill="none" opacity="0.33"></circle><circle r="11.5" cx="16" cy="73" stroke-width="2" stroke="hsl(261, 50%, 50%)" fill="none" opacity="0.47"></circle><circle r="12" cx="117" cy="484" fill="hsl(263, 50%, 50%)" opacity="0.79"></circle><circle r="9.5" cx="724" cy="770" stroke-width="2" stroke="hsl(154, 50%, 50%)" fill="none" opacity="0.43"></circle><circle r="8.5" cx="41" cy="32" stroke-width="2" stroke="hsl(192, 50%, 50%)" fill="none" opacity="0.44"></circle><circle r="12.5" cx="575" cy="23" fill="hsl(300, 50%, 50%)" opacity="0.68"></circle><circle r="11.5" cx="504" cy="16" fill="hsl(333, 50%, 50%)" opacity="0.61"></circle><circle r="10.5" cx="455" cy="542" fill="hsl(151, 50%, 50%)" opacity="0.75"></circle><circle r="7.5" cx="727" cy="451" fill="hsl(167, 50%, 50%)" opacity="0.81"></circle><circle r="11.5" cx="263" cy="253" stroke-width="2" stroke="hsl(245, 50%, 50%)" fill="none" opacity="0.87"></circle><circle r="12" cx="112" cy="780" stroke-width="2" stroke="hsl(265, 50%, 50%)" fill="none" opacity="0.12"></circle><circle r="12.5" cx="667" cy="24" fill="hsl(224, 50%, 50%)" opacity="0.98"></circle><circle r="8.5" cx="726" cy="253" fill="hsl(167, 50%, 50%)" opacity="0.93"></circle><circle r="5.5" cx="618" cy="227" fill="hsl(107, 50%, 50%)" opacity="0.47"></circle><circle r="8" cx="692" cy="276" stroke-width="2" stroke="hsl(132, 50%, 50%)" fill="none" opacity="0.64"></circle><circle r="11" cx="217" cy="232" fill="hsl(261, 50%, 50%)" opacity="0.35"></circle><circle r="6.5" cx="623" cy="342" fill="hsl(107, 50%, 50%)" opacity="0.93"></circle><circle r="6.5" cx="654" cy="668" fill="hsl(111, 50%, 50%)" opacity="0.86"></circle><circle r="13.5" cx="775" cy="24" stroke-width="2" stroke="hsl(238, 50%, 50%)" fill="none" opacity="0.53"></circle><circle r="9.5" cx="61" cy="66" stroke-width="2" stroke="hsl(219, 50%, 50%)" fill="none" opacity="0.26"></circle><circle r="10" cx="363" cy="572" fill="hsl(182, 50%, 50%)" opacity="0.31"></circle><circle r="13" cx="221" cy="587" fill="hsl(261, 50%, 50%)" opacity="0.55"></circle><circle r="7" cx="686" cy="462" stroke-width="2" stroke="hsl(123, 50%, 50%)" fill="none" opacity="0.84"></circle><circle r="7" cx="748" cy="511" stroke-width="2" stroke="hsl(181, 50%, 50%)" fill="none" opacity="0.69"></circle><circle r="9.5" cx="410" cy="374" fill="hsl(165, 50%, 50%)" opacity="0.52"></circle><circle r="9" cx="487" cy="200" stroke-width="2" stroke="hsl(145, 50%, 50%)" fill="none" opacity="0.26"></circle><circle r="8" cx="407" cy="780" stroke-width="2" stroke="hsl(165, 50%, 50%)" fill="none" opacity="0.94"></circle><circle r="7.5" cx="648" cy="747" stroke-width="2" stroke="hsl(108, 50%, 50%)" fill="none" opacity="0.24"></circle><circle r="7.5" cx="454" cy="641" stroke-width="2" stroke="hsl(151, 50%, 50%)" fill="none" opacity="0.70"></circle><circle r="13" cx="132" cy="187" fill="hsl(255, 50%, 50%)" opacity="0.53"></circle><circle r="11.5" cx="347" cy="474" fill="hsl(197, 50%, 50%)" opacity="0.51"></circle><circle r="7.5" cx="488" cy="777" fill="hsl(142, 50%, 50%)" opacity="0.79"></circle><circle r="9" cx="359" cy="235" stroke-width="2" stroke="hsl(189, 50%, 50%)" fill="none" opacity="0.22"></circle><circle r="8.5" cx="540" cy="505" stroke-width="2" stroke="hsl(125, 50%, 50%)" fill="none" opacity="0.33"></circle><circle r="9" cx="783" cy="194" stroke-width="2" stroke="hsl(226, 50%, 50%)" fill="none" opacity="0.22"></circle><circle r="9" cx="767" cy="115" fill="hsl(210, 50%, 50%)" opacity="0.73"></circle><circle r="11" cx="374" cy="48" stroke-width="2" stroke="hsl(245, 50%, 50%)" fill="none" opacity="0.70"></circle><circle r="7" cx="676" cy="634" stroke-width="2" stroke="hsl(123, 50%, 50%)" fill="none" opacity="0.76"></circle><circle r="10.5" cx="337" cy="607" stroke-width="2" stroke="hsl(206, 50%, 50%)" fill="none" opacity="0.66"></circle><circle r="9" cx="335" cy="171" stroke-width="2" stroke="hsl(210, 50%, 50%)" fill="none" opacity="0.41"></circle><circle r="9.5" cx="420" cy="713" stroke-width="2" stroke="hsl(161, 50%, 50%)" fill="none" opacity="0.66"></circle><circle r="6.5" cx="648" cy="287" fill="hsl(108, 50%, 50%)" opacity="0.92"></circle><circle r="8" cx="743" cy="198" stroke-width="2" stroke="hsl(181, 50%, 50%)" fill="none" opacity="0.40"></circle><circle r="7.5" cx="567" cy="174" stroke-width="2" stroke="hsl(134, 50%, 50%)" fill="none" opacity="0.41"></circle><circle r="11" cx="778" cy="743" fill="hsl(226, 50%, 50%)" opacity="0.82"></circle><circle r="13.5" cx="256" cy="484" fill="hsl(250, 50%, 50%)" opacity="0.98"></circle><circle r="13" cx="258" cy="566" fill="hsl(250, 50%, 50%)" opacity="0.25"></circle><circle r="8" cx="756" cy="347" stroke-width="2" stroke="hsl(196, 50%, 50%)" fill="none" opacity="0.30"></circle><circle r="6.5" cx="396" cy="220" fill="hsl(170, 50%, 50%)" opacity="0.85"></circle><circle r="7" cx="498" cy="270" fill="hsl(142, 50%, 50%)" opacity="0.98"></circle><circle r="10.5" cx="305" cy="780" stroke-width="2" stroke="hsl(223, 50%, 50%)" fill="none" opacity="0.87"></circle><circle r="7.5" cx="441" cy="317" stroke-width="2" stroke="hsl(154, 50%, 50%)" fill="none" opacity="0.62"></circle><circle r="6" cx="628" cy="640" fill="hsl(107, 50%, 50%)" opacity="0.36"></circle><circle r="6.5" cx="561" cy="216" fill="hsl(121, 50%, 50%)" opacity="0.47"></circle><circle r="6.5" cx="665" cy="705" fill="hsl(116, 50%, 50%)" opacity="0.67"></circle><circle r="12.5" cx="266" cy="296" fill="hsl(245, 50%, 50%)" opacity="0.85"></circle><circle r="9.5" cx="648" cy="100" stroke-width="2" stroke="hsl(165, 50%, 50%)" fill="none" opacity="0.61"></circle><circle r="7.5" cx="371" cy="166" fill="hsl(194, 50%, 50%)" opacity="0.22"></circle><circle r="7" cx="607" cy="280" stroke-width="2" stroke="hsl(108, 50%, 50%)" fill="none" opacity="0.27"></circle><circle r="7" cx="127" cy="20" fill="hsl(117, 50%, 50%)" opacity="0.52"></circle><circle r="10.5" cx="288" cy="671" fill="hsl(231, 50%, 50%)" opacity="0.73"></circle><circle r="10" cx="333" cy="57" stroke-width="2" stroke="hsl(223, 50%, 50%)" fill="none" opacity="0.30"></circle><circle r="12" cx="110" cy="308" stroke-width="2" stroke="hsl(265, 50%, 50%)" fill="none" opacity="0.85"></circle><circle r="6" cx="789" cy="573" fill="hsl(240, 50%, 50%)" opacity="0.49"></circle><circle r="11" cx="84" cy="469" fill="hsl(272, 50%, 50%)" opacity="0.48"></circle><circle r="7" cx="221" cy="25" stroke-width="2" stroke="hsl(136, 50%, 50%)" fill="none" opacity="0.53"></circle><circle r="8.5" cx="519" cy="672" fill="hsl(134, 50%, 50%)" opacity="0.30"></circle><circle r="6" cx="646" cy="246" stroke-width="2" stroke="hsl(108, 50%, 50%)" fill="none" opacity="0.93"></circle><circle r="8.5" cx="436" cy="278" stroke-width="2" stroke="hsl(157, 50%, 50%)" fill="none" opacity="0.74"></circle><circle r="13.5" cx="191" cy="684" stroke-width="2" stroke="hsl(263, 50%, 50%)" fill="none" opacity="0.72"></circle><circle r="11.5" cx="18" cy="487" fill="hsl(308, 50%, 50%)" opacity="0.46"></circle><circle r="8.5" cx="446" cy="778" fill="hsl(154, 50%, 50%)" opacity="0.52"></circle><circle r="9" cx="488" cy="501" fill="hsl(142, 50%, 50%)" opacity="0.41"></circle><circle r="14.5" cx="20" cy="408" stroke-width="2" stroke="hsl(308, 50%, 50%)" fill="none" opacity="0.77"></circle><circle r="8.5" cx="402" cy="327" fill="hsl(165, 50%, 50%)" opacity="0.31"></circle><circle r="6" cx="630" cy="572" fill="hsl(107, 50%, 50%)" opacity="0.89"></circle><circle r="8" cx="785" cy="452" fill="hsl(226, 50%, 50%)" opacity="0.30"></circle><circle r="12" cx="188" cy="308" stroke-width="2" stroke="hsl(263, 50%, 50%)" fill="none" opacity="0.87"></circle><circle r="12" cx="531" cy="86" stroke-width="2" stroke="hsl(266, 50%, 50%)" fill="none" opacity="0.49"></circle><circle r="8.5" cx="757" cy="275" fill="hsl(196, 50%, 50%)" opacity="0.98"></circle><circle r="14" cx="23" cy="260" stroke-width="2" stroke="hsl(308, 50%, 50%)" fill="none" opacity="0.22"></circle><circle r="10.5" cx="243" cy="703" fill="hsl(255, 50%, 50%)" opacity="0.16"></circle><circle r="7.5" cx="359" cy="784" stroke-width="2" stroke="hsl(189, 50%, 50%)" fill="none" opacity="0.27"></circle><circle r="11.5" cx="517" cy="51" fill="hsl(302, 50%, 50%)" opacity="0.79"></circle><circle r="6.5" cx="627" cy="454" stroke-width="2" stroke="hsl(107, 50%, 50%)" fill="none" opacity="0.92"></circle><circle r="6.5" cx="655" cy="324" stroke-width="2" stroke="hsl(111, 50%, 50%)" fill="none" opacity="0.43"></circle><circle r="10" cx="391" cy="672" stroke-width="2" stroke="hsl(170, 50%, 50%)" fill="none" opacity="0.30"></circle><circle r="7.5" cx="393" cy="747" fill="hsl(170, 50%, 50%)" opacity="0.39"></circle><circle r="10.5" cx="348" cy="322" fill="hsl(197, 50%, 50%)" opacity="0.91"></circle><circle r="7.5" cx="714" cy="215" stroke-width="2" stroke="hsl(154, 50%, 50%)" fill="none" opacity="0.16"></circle><circle r="13" cx="65" cy="245" stroke-width="2" stroke="hsl(278, 50%, 50%)" fill="none" opacity="0.78"></circle><circle r="8.5" cx="784" cy="656" fill="hsl(226, 50%, 50%)" opacity="0.71"></circle><circle r="10" cx="322" cy="128" stroke-width="2" stroke="hsl(219, 50%, 50%)" fill="none" opacity="0.44"></circle><circle r="9" cx="459" cy="737" stroke-width="2" stroke="hsl(151, 50%, 50%)" fill="none" opacity="0.70"></circle><circle r="6.5" cx="394" cy="190" stroke-width="2" stroke="hsl(170, 50%, 50%)" fill="none" opacity="0.85"></circle><circle r="6.5" cx="533" cy="274" fill="hsl(130, 50%, 50%)" opacity="0.97"></circle><circle r="9" cx="373" cy="358" stroke-width="2" stroke="hsl(182, 50%, 50%)" fill="none" opacity="0.91"></circle><circle r="6" cx="668" cy="522" fill="hsl(116, 50%, 50%)" opacity="0.56"></circle><circle r="11.5" cx="53" cy="434" fill="hsl(284, 50%, 50%)" opacity="0.42"></circle><circle r="7" cx="15" cy="20" fill="hsl(207, 50%, 50%)" opacity="0.38"></circle><circle r="6.5" cx="632" cy="524" stroke-width="2" stroke="hsl(107, 50%, 50%)" fill="none" opacity="0.23"></circle><circle r="12.5" cx="152" cy="460" fill="hsl(262, 50%, 50%)" opacity="0.81"></circle><circle r="13" cx="182" cy="390" stroke-width="2" stroke="hsl(263, 50%, 50%)" fill="none" opacity="0.72"></circle><circle r="7" cx="787" cy="258" stroke-width="2" stroke="hsl(226, 50%, 50%)" fill="none" opacity="0.21"></circle><circle r="11" cx="46" cy="589" fill="hsl(292, 50%, 50%)" opacity="0.65"></circle><circle r="11" cx="90" cy="430" fill="hsl(268, 50%, 50%)" opacity="0.41"></circle><circle r="12.5" cx="19" cy="558" stroke-width="2" stroke="hsl(308, 50%, 50%)" fill="none" opacity="0.85"></circle><circle r="10" cx="336" cy="429" stroke-width="2" stroke="hsl(206, 50%, 50%)" fill="none" opacity="0.26"></circle><circle r="11" cx="74" cy="664" fill="hsl(278, 50%, 50%)" opacity="0.93"></circle><circle r="8.5" cx="540" cy="407" fill="hsl(125, 50%, 50%)" opacity="0.99"></circle><circle r="9.5" cx="301" cy="20" stroke-width="2" stroke="hsl(193, 50%, 50%)" fill="none" opacity="0.96"></circle><circle r="7" cx="680" cy="232" stroke-width="2" stroke="hsl(123, 50%, 50%)" fill="none" opacity="0.48"></circle><circle r="11.5" cx="278" cy="528" stroke-width="2" stroke="hsl(238, 50%, 50%)" fill="none" opacity="0.89"></circle><circle r="6.5" cx="585" cy="580" stroke-width="2" stroke="hsl(113, 50%, 50%)" fill="none" opacity="0.86"></circle><circle r="8.5" cx="545" cy="357" stroke-width="2" stroke="hsl(125, 50%, 50%)" fill="none" opacity="0.80"></circle><circle r="12" cx="17" cy="362" fill="hsl(308, 50%, 50%)" opacity="0.72"></circle><circle r="14" cx="24" cy="216" fill="hsl(308, 50%, 50%)" opacity="0.15"></circle><circle r="13" cx="255" cy="424" fill="hsl(250, 50%, 50%)" opacity="0.53"></circle><circle r="11.5" cx="309" cy="495" stroke-width="2" stroke="hsl(223, 50%, 50%)" fill="none" opacity="0.50"></circle><circle r="8" cx="434" cy="230" stroke-width="2" stroke="hsl(157, 50%, 50%)" fill="none" opacity="0.92"></circle><circle r="13" cx="80" cy="342" stroke-width="2" stroke="hsl(272, 50%, 50%)" fill="none" opacity="0.76"></circle><circle r="9" cx="537" cy="458" stroke-width="2" stroke="hsl(130, 50%, 50%)" fill="none" opacity="0.15"></circle><circle r="12.5" cx="216" cy="638" stroke-width="2" stroke="hsl(261, 50%, 50%)" fill="none" opacity="0.81"></circle><circle r="12" cx="148" cy="301" fill="hsl(262, 50%, 50%)" opacity="0.95"></circle><circle r="9" cx="421" cy="588" fill="hsl(161, 50%, 50%)" opacity="0.92"></circle><circle r="8.5" cx="721" cy="16" fill="hsl(212, 50%, 50%)" opacity="0.68"></circle><circle r="12" cx="301" cy="580" stroke-width="2" stroke="hsl(223, 50%, 50%)" fill="none" opacity="0.92"></circle><circle r="7.5" cx="175" cy="21" fill="hsl(120, 50%, 50%)" opacity="0.92"></circle><circle r="7.5" cx="556" cy="546" fill="hsl(121, 50%, 50%)" opacity="0.75"></circle><circle r="12" cx="152" cy="508" stroke-width="2" stroke="hsl(262, 50%, 50%)" fill="none" opacity="0.70"></circle><circle r="8" cx="717" cy="379" fill="hsl(154, 50%, 50%)" opacity="0.68"></circle><circle r="11.5" cx="213" cy="270" stroke-width="2" stroke="hsl(261, 50%, 50%)" fill="none" opacity="0.72"></circle><circle r="8.5" cx="455" cy="394" stroke-width="2" stroke="hsl(151, 50%, 50%)" fill="none" opacity="0.36"></circle><circle r="12" cx="470" cy="25" fill="hsl(321, 50%, 50%)" opacity="0.89"></circle><circle r="8" cx="693" cy="179" stroke-width="2" stroke="hsl(133, 50%, 50%)" fill="none" opacity="0.49"></circle><circle r="7" cx="712" cy="419" stroke-width="2" stroke="hsl(142, 50%, 50%)" fill="none" opacity="0.11"></circle><circle r="10.5" cx="296" cy="203" fill="hsl(231, 50%, 50%)" opacity="0.72"></circle><circle r="8" cx="491" cy="642" stroke-width="2" stroke="hsl(142, 50%, 50%)" fill="none" opacity="0.27"></circle><circle r="8" cx="737" cy="606" fill="hsl(167, 50%, 50%)" opacity="0.19"></circle><circle r="9" cx="258" cy="22" fill="hsl(159, 50%, 50%)" opacity="0.78"></circle><circle r="11" cx="226" cy="195" stroke-width="2" stroke="hsl(259, 50%, 50%)" fill="none" opacity="0.58"></circle><circle r="8" cx="717" cy="142" fill="hsl(159, 50%, 50%)" opacity="0.58"></circle><circle r="8" cx="526" cy="767" stroke-width="2" stroke="hsl(130, 50%, 50%)" fill="none" opacity="0.31"></circle><circle r="6.5" cx="692" cy="596" fill="hsl(132, 50%, 50%)" opacity="0.86"></circle><circle r="6" cx="646" cy="487" fill="hsl(108, 50%, 50%)" opacity="0.16"></circle><circle r="10.5" cx="394" cy="461" fill="hsl(170, 50%, 50%)" opacity="0.40"></circle><circle r="8.5" cx="425" cy="159" fill="hsl(193, 50%, 50%)" opacity="0.87"></circle><circle r="6.5" cx="75" cy="15" stroke-width="2" stroke="hsl(152, 50%, 50%)" fill="none" opacity="0.12"></circle><circle r="8" cx="520" cy="232" stroke-width="2" stroke="hsl(134, 50%, 50%)" fill="none" opacity="0.75"></circle><circle r="6" cx="616" cy="607" fill="hsl(107, 50%, 50%)" opacity="0.71"></circle><circle r="10" cx="334" cy="695" stroke-width="2" stroke="hsl(206, 50%, 50%)" fill="none" opacity="0.36"></circle><circle r="10" cx="409" cy="64" stroke-width="2" stroke="hsl(263, 50%, 50%)" fill="none" opacity="0.23"></circle><circle r="11.5" cx="173" cy="724" stroke-width="2" stroke="hsl(263, 50%, 50%)" fill="none" opacity="0.81"></circle><circle r="9" cx="756" cy="430" stroke-width="2" stroke="hsl(196, 50%, 50%)" fill="none" opacity="0.36"></circle><circle r="10" cx="372" cy="409" fill="hsl(182, 50%, 50%)" opacity="0.87"></circle><circle r="9.5" cx="403" cy="129" stroke-width="2" stroke="hsl(216, 50%, 50%)" fill="none" opacity="0.47"></circle><circle r="8" cx="785" cy="406" fill="hsl(226, 50%, 50%)" opacity="0.20"></circle><circle r="11" cx="334" cy="373" stroke-width="2" stroke="hsl(206, 50%, 50%)" fill="none" opacity="0.27"></circle></svg>