<svg xmlns="http://www.w3.org/2000/svg" version="1.1" xmlns:xlink="http://www.w3.org/1999/xlink" xmlns:svgjs="http://svgjs.dev/svgjs" viewBox="0 0 2400 800"><defs><linearGradient x1="50%" y1="0%" x2="50%" y2="100%" id="sssurf-grad"><stop stop-color="hsl(206, 75%, 49%)" stop-opacity="1" offset="0%"></stop><stop stop-color="hsl(331, 90%, 56%)" stop-opacity="1" offset="100%"></stop></linearGradient></defs><g fill="url(#sssurf-grad)" transform="matrix(1,0,0,1,0,-167.71859741210938)"><path d="M 0 320.6793896259564 Q 200 478.7680699449892 266.6666666666667 333.1607271988137 Q 466.6666666666667 575.8677002570819 533.3333333333334 330.49643313274106 Q 733.3333333333334 467.83408415101906 800 313.57389508703784 Q 1000.0000000000001 597.0927431895345 1066.6666666666667 331.86876531540906 Q 1266.6666666666667 632.8101425384606 1333.3333333333335 315.1166198838045 Q 1533.3333333333333 450.6947021416629 1600 327.85226835737353 Q 1800 475.54842008461515 1866.6666666666667 310.4372332101136 Q 2066.666666666667 508.17426278716124 2133.3333333333335 314.62063461213415 Q 2333.3333333333335 531.3663691561486 2400 319.32023367432976 L 2400 800 L 0 800 L 0 330.253700678213 Z" transform="matrix(1,0,0,1,0,25)" opacity="0.05"></path><path d="M 0 320.6793896259564 Q 200 478.7680699449892 266.6666666666667 333.1607271988137 Q 466.6666666666667 575.8677002570819 533.3333333333334 330.49643313274106 Q 733.3333333333334 467.83408415101906 800 313.57389508703784 Q 1000.0000000000001 597.0927431895345 1066.6666666666667 331.86876531540906 Q 1266.6666666666667 632.8101425384606 1333.3333333333335 315.1166198838045 Q 1533.3333333333333 450.6947021416629 1600 327.85226835737353 Q 1800 475.54842008461515 1866.6666666666667 310.4372332101136 Q 2066.666666666667 508.17426278716124 2133.3333333333335 314.62063461213415 Q 2333.3333333333335 531.3663691561486 2400 319.32023367432976 L 2400 800 L 0 800 L 0 330.253700678213 Z" transform="matrix(1,0,0,1,0,50)" opacity="0.11"></path><path d="M 0 320.6793896259564 Q 200 478.7680699449892 266.6666666666667 333.1607271988137 Q 466.6666666666667 575.8677002570819 533.3333333333334 330.49643313274106 Q 733.3333333333334 467.83408415101906 800 313.57389508703784 Q 1000.0000000000001 597.0927431895345 1066.6666666666667 331.86876531540906 Q 1266.6666666666667 632.8101425384606 1333.3333333333335 315.1166198838045 Q 1533.3333333333333 450.6947021416629 1600 327.85226835737353 Q 1800 475.54842008461515 1866.6666666666667 310.4372332101136 Q 2066.666666666667 508.17426278716124 2133.3333333333335 314.62063461213415 Q 2333.3333333333335 531.3663691561486 2400 319.32023367432976 L 2400 800 L 0 800 L 0 330.253700678213 Z" transform="matrix(1,0,0,1,0,75)" opacity="0.18"></path><path d="M 0 320.6793896259564 Q 200 478.7680699449892 266.6666666666667 333.1607271988137 Q 466.6666666666667 575.8677002570819 533.3333333333334 330.49643313274106 Q 733.3333333333334 467.83408415101906 800 313.57389508703784 Q 1000.0000000000001 597.0927431895345 1066.6666666666667 331.86876531540906 Q 1266.6666666666667 632.8101425384606 1333.3333333333335 315.1166198838045 Q 1533.3333333333333 450.6947021416629 1600 327.85226835737353 Q 1800 475.54842008461515 1866.6666666666667 310.4372332101136 Q 2066.666666666667 508.17426278716124 2133.3333333333335 314.62063461213415 Q 2333.3333333333335 531.3663691561486 2400 319.32023367432976 L 2400 800 L 0 800 L 0 330.253700678213 Z" transform="matrix(1,0,0,1,0,100)" opacity="0.24"></path><path d="M 0 320.6793896259564 Q 200 478.7680699449892 266.6666666666667 333.1607271988137 Q 466.6666666666667 575.8677002570819 533.3333333333334 330.49643313274106 Q 733.3333333333334 467.83408415101906 800 313.57389508703784 Q 1000.0000000000001 597.0927431895345 1066.6666666666667 331.86876531540906 Q 1266.6666666666667 632.8101425384606 1333.3333333333335 315.1166198838045 Q 1533.3333333333333 450.6947021416629 1600 327.85226835737353 Q 1800 475.54842008461515 1866.6666666666667 310.4372332101136 Q 2066.666666666667 508.17426278716124 2133.3333333333335 314.62063461213415 Q 2333.3333333333335 531.3663691561486 2400 319.32023367432976 L 2400 800 L 0 800 L 0 330.253700678213 Z" transform="matrix(1,0,0,1,0,125)" opacity="0.30"></path><path d="M 0 320.6793896259564 Q 200 478.7680699449892 266.6666666666667 333.1607271988137 Q 466.6666666666667 575.8677002570819 533.3333333333334 330.49643313274106 Q 733.3333333333334 467.83408415101906 800 313.57389508703784 Q 1000.0000000000001 597.0927431895345 1066.6666666666667 331.86876531540906 Q 1266.6666666666667 632.8101425384606 1333.3333333333335 315.1166198838045 Q 1533.3333333333333 450.6947021416629 1600 327.85226835737353 Q 1800 475.54842008461515 1866.6666666666667 310.4372332101136 Q 2066.666666666667 508.17426278716124 2133.3333333333335 314.62063461213415 Q 2333.3333333333335 531.3663691561486 2400 319.32023367432976 L 2400 800 L 0 800 L 0 330.253700678213 Z" transform="matrix(1,0,0,1,0,150)" opacity="0.37"></path><path d="M 0 320.6793896259564 Q 200 478.7680699449892 266.6666666666667 333.1607271988137 Q 466.6666666666667 575.8677002570819 533.3333333333334 330.49643313274106 Q 733.3333333333334 467.83408415101906 800 313.57389508703784 Q 1000.0000000000001 597.0927431895345 1066.6666666666667 331.86876531540906 Q 1266.6666666666667 632.8101425384606 1333.3333333333335 315.1166198838045 Q 1533.3333333333333 450.6947021416629 1600 327.85226835737353 Q 1800 475.54842008461515 1866.6666666666667 310.4372332101136 Q 2066.666666666667 508.17426278716124 2133.3333333333335 314.62063461213415 Q 2333.3333333333335 531.3663691561486 2400 319.32023367432976 L 2400 800 L 0 800 L 0 330.253700678213 Z" transform="matrix(1,0,0,1,0,175)" opacity="0.43"></path><path d="M 0 320.6793896259564 Q 200 478.7680699449892 266.6666666666667 333.1607271988137 Q 466.6666666666667 575.8677002570819 533.3333333333334 330.49643313274106 Q 733.3333333333334 467.83408415101906 800 313.57389508703784 Q 1000.0000000000001 597.0927431895345 1066.6666666666667 331.86876531540906 Q 1266.6666666666667 632.8101425384606 1333.3333333333335 315.1166198838045 Q 1533.3333333333333 450.6947021416629 1600 327.85226835737353 Q 1800 475.54842008461515 1866.6666666666667 310.4372332101136 Q 2066.666666666667 508.17426278716124 2133.3333333333335 314.62063461213415 Q 2333.3333333333335 531.3663691561486 2400 319.32023367432976 L 2400 800 L 0 800 L 0 330.253700678213 Z" transform="matrix(1,0,0,1,0,200)" opacity="0.49"></path><path d="M 0 320.6793896259564 Q 200 478.7680699449892 266.6666666666667 333.1607271988137 Q 466.6666666666667 575.8677002570819 533.3333333333334 330.49643313274106 Q 733.3333333333334 467.83408415101906 800 313.57389508703784 Q 1000.0000000000001 597.0927431895345 1066.6666666666667 331.86876531540906 Q 1266.6666666666667 632.8101425384606 1333.3333333333335 315.1166198838045 Q 1533.3333333333333 450.6947021416629 1600 327.85226835737353 Q 1800 475.54842008461515 1866.6666666666667 310.4372332101136 Q 2066.666666666667 508.17426278716124 2133.3333333333335 314.62063461213415 Q 2333.3333333333335 531.3663691561486 2400 319.32023367432976 L 2400 800 L 0 800 L 0 330.253700678213 Z" transform="matrix(1,0,0,1,0,225)" opacity="0.56"></path><path d="M 0 320.6793896259564 Q 200 478.7680699449892 266.6666666666667 333.1607271988137 Q 466.6666666666667 575.8677002570819 533.3333333333334 330.49643313274106 Q 733.3333333333334 467.83408415101906 800 313.57389508703784 Q 1000.0000000000001 597.0927431895345 1066.6666666666667 331.86876531540906 Q 1266.6666666666667 632.8101425384606 1333.3333333333335 315.1166198838045 Q 1533.3333333333333 450.6947021416629 1600 327.85226835737353 Q 1800 475.54842008461515 1866.6666666666667 310.4372332101136 Q 2066.666666666667 508.17426278716124 2133.3333333333335 314.62063461213415 Q 2333.3333333333335 531.3663691561486 2400 319.32023367432976 L 2400 800 L 0 800 L 0 330.253700678213 Z" transform="matrix(1,0,0,1,0,250)" opacity="0.62"></path><path d="M 0 320.6793896259564 Q 200 478.7680699449892 266.6666666666667 333.1607271988137 Q 466.6666666666667 575.8677002570819 533.3333333333334 330.49643313274106 Q 733.3333333333334 467.83408415101906 800 313.57389508703784 Q 1000.0000000000001 597.0927431895345 1066.6666666666667 331.86876531540906 Q 1266.6666666666667 632.8101425384606 1333.3333333333335 315.1166198838045 Q 1533.3333333333333 450.6947021416629 1600 327.85226835737353 Q 1800 475.54842008461515 1866.6666666666667 310.4372332101136 Q 2066.666666666667 508.17426278716124 2133.3333333333335 314.62063461213415 Q 2333.3333333333335 531.3663691561486 2400 319.32023367432976 L 2400 800 L 0 800 L 0 330.253700678213 Z" transform="matrix(1,0,0,1,0,275)" opacity="0.68"></path><path d="M 0 320.6793896259564 Q 200 478.7680699449892 266.6666666666667 333.1607271988137 Q 466.6666666666667 575.8677002570819 533.3333333333334 330.49643313274106 Q 733.3333333333334 467.83408415101906 800 313.57389508703784 Q 1000.0000000000001 597.0927431895345 1066.6666666666667 331.86876531540906 Q 1266.6666666666667 632.8101425384606 1333.3333333333335 315.1166198838045 Q 1533.3333333333333 450.6947021416629 1600 327.85226835737353 Q 1800 475.54842008461515 1866.6666666666667 310.4372332101136 Q 2066.666666666667 508.17426278716124 2133.3333333333335 314.62063461213415 Q 2333.3333333333335 531.3663691561486 2400 319.32023367432976 L 2400 800 L 0 800 L 0 330.253700678213 Z" transform="matrix(1,0,0,1,0,300)" opacity="0.75"></path><path d="M 0 320.6793896259564 Q 200 478.7680699449892 266.6666666666667 333.1607271988137 Q 466.6666666666667 575.8677002570819 533.3333333333334 330.49643313274106 Q 733.3333333333334 467.83408415101906 800 313.57389508703784 Q 1000.0000000000001 597.0927431895345 1066.6666666666667 331.86876531540906 Q 1266.6666666666667 632.8101425384606 1333.3333333333335 315.1166198838045 Q 1533.3333333333333 450.6947021416629 1600 327.85226835737353 Q 1800 475.54842008461515 1866.6666666666667 310.4372332101136 Q 2066.666666666667 508.17426278716124 2133.3333333333335 314.62063461213415 Q 2333.3333333333335 531.3663691561486 2400 319.32023367432976 L 2400 800 L 0 800 L 0 330.253700678213 Z" transform="matrix(1,0,0,1,0,325)" opacity="0.81"></path><path d="M 0 320.6793896259564 Q 200 478.7680699449892 266.6666666666667 333.1607271988137 Q 466.6666666666667 575.8677002570819 533.3333333333334 330.49643313274106 Q 733.3333333333334 467.83408415101906 800 313.57389508703784 Q 1000.0000000000001 597.0927431895345 1066.6666666666667 331.86876531540906 Q 1266.6666666666667 632.8101425384606 1333.3333333333335 315.1166198838045 Q 1533.3333333333333 450.6947021416629 1600 327.85226835737353 Q 1800 475.54842008461515 1866.6666666666667 310.4372332101136 Q 2066.666666666667 508.17426278716124 2133.3333333333335 314.62063461213415 Q 2333.3333333333335 531.3663691561486 2400 319.32023367432976 L 2400 800 L 0 800 L 0 330.253700678213 Z" transform="matrix(1,0,0,1,0,350)" opacity="0.87"></path><path d="M 0 320.6793896259564 Q 200 478.7680699449892 266.6666666666667 333.1607271988137 Q 466.6666666666667 575.8677002570819 533.3333333333334 330.49643313274106 Q 733.3333333333334 467.83408415101906 800 313.57389508703784 Q 1000.0000000000001 597.0927431895345 1066.6666666666667 331.86876531540906 Q 1266.6666666666667 632.8101425384606 1333.3333333333335 315.1166198838045 Q 1533.3333333333333 450.6947021416629 1600 327.85226835737353 Q 1800 475.54842008461515 1866.6666666666667 310.4372332101136 Q 2066.666666666667 508.17426278716124 2133.3333333333335 314.62063461213415 Q 2333.3333333333335 531.3663691561486 2400 319.32023367432976 L 2400 800 L 0 800 L 0 330.253700678213 Z" transform="matrix(1,0,0,1,0,375)" opacity="0.94"></path><path d="M 0 320.6793896259564 Q 200 478.7680699449892 266.6666666666667 333.1607271988137 Q 466.6666666666667 575.8677002570819 533.3333333333334 330.49643313274106 Q 733.3333333333334 467.83408415101906 800 313.57389508703784 Q 1000.0000000000001 597.0927431895345 1066.6666666666667 331.86876531540906 Q 1266.6666666666667 632.8101425384606 1333.3333333333335 315.1166198838045 Q 1533.3333333333333 450.6947021416629 1600 327.85226835737353 Q 1800 475.54842008461515 1866.6666666666667 310.4372332101136 Q 2066.666666666667 508.17426278716124 2133.3333333333335 314.62063461213415 Q 2333.3333333333335 531.3663691561486 2400 319.32023367432976 L 2400 800 L 0 800 L 0 330.253700678213 Z" transform="matrix(1,0,0,1,0,400)" opacity="1.00"></path></g></svg>