<svg xmlns="http://www.w3.org/2000/svg" version="1.1" xmlns:xlink="http://www.w3.org/1999/xlink" xmlns:svgjs="http://svgjs.dev/svgjs" viewBox="0 0 800 800"><defs><linearGradient x1="50%" y1="0%" x2="50%" y2="100%" id="uundulate-grad"><stop stop-color="hsl(185, 53%, 55%)" stop-opacity="1" offset="45%"></stop><stop stop-color="hsl(0, 73%, 55%)" stop-opacity="1" offset="100%"></stop></linearGradient></defs><g stroke-width="2" stroke="url(#uundulate-grad)" fill="none"><path d="M887.19023810814 -210.27923084063673C941.9183896142822 -62.82982261378788 697.0230637883005 354.13184122446967 526.398650330717 618.3917582515596C355.77423687313353 882.6516752786495 194.15098164661345 1095.2984263323801 68.19305351173944 1058.1683708893943C-57.7648746231344 1021.0383154464082 -55.68656908156606 641.916728569196 -78.19940471667769 440.1674921252254C-100.71224035178932 238.418255681255 -111.09833416552948 200.0913887421989 -39.86855753679794 89.77203595833612C31.36121909193355 -20.547316825526764 70.56627400853858 -26.854720654195262 263.7035231012336 -89.3654012373147C456.84077219392873 -151.87608182043414 832.4620866019977 -357.72863906748563 887.19023810814 -210.27923084063673C941.9183896142822 -62.82982261378788 697.0230637883005 354.13184122446967 526.398650330717 618.3917582515596 "></path><path d="M865.0452258978803 -182.53928244837766C917.2857341537433 -41.792120050021936 683.5220140471242 356.2167408864966 520.6532557467036 608.4648435032645C357.784497446283 860.712946120032 203.50775382096833 1063.6939357622296 83.27518605586147 1028.2516101121064C-36.95738170924551 992.8092844619835 -34.97354460138479 630.920496988281 -56.46306952580949 438.3416803826726C-77.95259445023424 245.76286377706435 -87.86659309062264 209.17812715342006 -19.87453358137884 103.87329040518739C48.117525927864904 -1.4315463430453974 85.54053289371507 -7.452249997683566 269.8988161185604 -67.12153600884301C454.2570993434057 -126.79082202000245 812.8047176420168 -323.28644484673345 865.0452258978803 -182.53928244837766C917.2857341537433 -41.792120050021936 683.5220140471242 356.2167408864966 520.6532557467036 608.4648435032645 "></path><path d="M842.9002136876202 -154.79933405611865C892.6530786932042 -20.75441748625599 670.0209643059479 358.30164054852355 514.9078611626902 598.537928754969C359.7947580194325 838.7742169614141 212.86452599532322 1032.0894451920785 98.35731859998339 998.3348493348185C-16.14988879535656 964.5802534775585 -14.260520121203513 619.9242654073655 -34.72673433494134 436.5158686401197C-55.19294854867917 253.1074718728737 -64.63485201571575 218.264865564641 0.11949037404019691 117.97454485203843C64.87383276379614 17.684224139435855 100.51479177889155 11.95022065882813 276.09410913588704 -44.87767078037132C451.67342649288264 -101.70556221957082 793.1473486820362 -288.84425062598126 842.9002136876202 -154.79933405611865C892.6530786932042 -20.75441748625599 670.0209643059479 358.30164054852355 514.9078611626902 598.537928754969 "></path><path d="M820.7552014773603 -127.05926359354709C868.020423232665 0.2834071478224587 656.5199145647716 360.386662280863 509.1624665786768 588.611136076986C361.805018592582 816.8356098731092 222.22129816967822 1000.4850766922402 113.4394511441053 968.4182106278433C4.657604118532333 936.3513445634462 6.452504358977762 608.9281558967632 -12.990399144073194 434.69017896787943C-32.43330264712415 260.45220203899567 -41.40311094080886 227.3517260461747 20.113514329459292 132.0759213692022C81.63013959972744 36.80011669222972 115.48905066406803 31.352813385652325 282.2894021532138 -22.633683481587127C449.0897536423596 -76.62018034882664 773.4899797220555 -254.40193433491652 820.7552014773603 -127.05926359354709C868.020423232665 0.2834071478224587 656.5199145647716 360.386662280863 509.1624665786768 588.611136076986 "></path><path d="M798.6101892671004 -99.3192846837099C843.3877677721259 21.321140229166417 643.0188648235953 362.47159246046806 503.4170719946634 578.684251846269C363.81527916573145 794.8969112320697 231.5780703440331 968.8806166396676 128.52158368822722 938.5014803681336C25.465097032421284 908.1223440965996 27.165528839159037 597.9319548334261 8.745936046794952 432.86439774290466C-9.673656745569076 267.79684065238325 -18.171369865901966 236.43849497497376 40.10753828487839 146.1772063336316C98.38644643565874 55.91591769228921 130.46330954924457 50.755314559742146 288.4846951705406 -0.38978773553731116C446.50608079183655 -51.53489003081688 753.8326107620746 -219.95970959658626 798.6101892671004 -99.3192846837099C843.3877677721259 21.321140229166417 643.0188648235953 362.47159246046806 503.4170719946634 578.684251846269 "></path><path d="M776.4651770568403 -71.57936680902895C818.7551123115868 42.358812275354296 629.517815082419 364.5564616049169 497.67167741064986 568.7573065803954C365.82553973888093 772.9581515558741 240.9348425183881 937.2760955519386 143.60371623234914 908.5846890732678C46.27258994631018 879.8932825945967 47.87855331934031 586.9356927349327 30.482271237663156 431.03855548277375C13.085989155985942 275.1414182306146 5.06037120900487 245.52520286861682 60.10156224029748 160.27843026290464C115.14275327159004 75.03165765719245 145.4375684344211 70.15775469867572 294.67998818786737 21.854046975356255C443.9224079413135 -26.44966074796332 734.1752418020942 -185.5175458934122 776.4651770568403 -71.57936680902895C818.7551123115868 42.358812275354296 629.517815082419 364.5564616049169 497.67167741064986 568.7573065803954 "></path><path d="M754.3201038114244 -43.83941841676989C794.1223958158914 63.39651483912019 616.0167043060864 366.6413612669438 491.9262217914802 558.8303918321002C367.83573927687416 751.0194223972564 250.29155365758675 905.6716049817878 158.6857877413148 878.6679282959799C67.08002182504288 851.664251610172 68.59151676436534 575.9394611540176 52.21854539337505 429.21274374022073C35.84557402238477 282.48602632642405 28.292051248755513 254.61194127983777 80.09552516056027 174.3796847097558C131.8989990723651 94.1474281396737 160.41176628444134 89.56022535518753 300.8752201700379 44.097912203827946C441.3386740556342 -1.3644009475316352 714.5178118069571 -151.07535167265996 754.3201038114244 -43.83941841676989C794.1223958158914 63.39651483912019 616.0167043060864 366.6413612669438 491.9262217914802 558.8303918321002 "></path><path d="M732.1750916011642 -16.099378471776447C769.4897403553523 84.43430895562051 602.51565456491 368.72635248170513 486.1808272074668 548.9035686365393C369.84599985002365 729.0807847913734 259.64832583194163 874.0672059643716 173.76792028543673 848.7512590714266C87.88751473893177 823.4353121784816 89.30454124454661 564.9433211258367 73.9548805842432 427.3870235504023C58.60521992393984 289.8307259749679 51.523792323662406 263.6987712437933 100.08954911597937 188.48103070934144C148.65530590829633 113.26329017488945 175.38602516961788 108.9627875644336 307.07051318736455 66.34186898503401C438.7550012051113 23.720950405634426 694.8604428469763 -116.6330658991734 732.1750916011642 -16.099378471776447C769.4897403553523 84.43430895562051 602.51565456491 368.72635248170513 486.1808272074668 548.9035686365393 "></path><path d="M710.0301404260607 11.640447850170062C744.8571459299694 105.4718894490739 589.0146658588901 370.8111300734197 480.43549365860963 538.9765318179313C371.8563214583294 707.1419335624432 269.0051590414529 842.4625933239081 188.8501138647149 818.834376223826C108.69506868797697 795.2061591237441 110.01762675988408 553.9469674746091 95.6912768102676 425.56108973753703C81.36492686065111 297.17521200046485 74.75559443372555 272.7853875847019 120.08363410655471 202.5821630858801C165.41167377938388 132.37893858705826 190.36034508995067 128.3651361506328 313.26586723984747 88.5856121431932C436.1713893897445 48.806088135753555 675.2031349221519 -82.19099374873372 710.0301404260607 11.640447850170062C744.8571459299694 105.4718894490739 589.0146658588901 370.8111300734197 480.43549365860963 538.9765318179313 "></path><path d="M687.8851282158008 39.3804877951635C720.2244904694303 126.50968356557422 575.5136161177138 372.8961212881809 474.6900990745962 529.0497086223704C373.86658203147874 685.2032959565599 278.3619312158078 810.8581943064919 203.93224640883682 788.9177069992729C129.50256160186586 766.9772196920537 130.73065124006536 542.9508274464283 117.4276120011358 423.7353695477184C104.12457276220618 304.5199116490086 97.98733550863244 281.8722175486573 140.0776580619738 216.68350908546563C182.16798061531517 151.49480062227394 205.33460397512715 147.76769835987892 319.46116025717424 110.82956892439927C433.58771653922145 73.89143948891962 655.5457659621712 -47.74870797524716 687.8851282158008 39.3804877951635C720.2244904694303 126.50968356557422 575.5136161177138 372.8961212881809 474.6900990745962 529.0497086223704 "></path><path d="M665.7401160055408 67.1204667050007C695.5918350088912 147.54741664691824 562.0125663765375 374.98105146778596 468.9447044905828 519.1228243916532C375.8768426046282 663.2645973155205 287.7187033901628 779.253734253919 219.01437895295874 759.0009767395629C150.3100545157548 738.7482192252069 151.44367572024663 531.9546263830912 139.16394719200395 421.90958832274373C126.88421866376126 311.86455026239616 121.21907658353928 290.9589864774565 160.0716820173929 230.78479404989503C198.9242874512464 170.61060162233343 220.3088628603037 167.17019953396874 325.656453274501 133.07346467044908C431.0040436886983 98.97672980692937 635.8883970021905 -13.306483236916847 665.7401160055408 67.1204667050007C695.5918350088912 147.54741664691824 562.0125663765375 374.98105146778596 468.9447044905828 519.1228243916532 "></path><path d="M643.5951037952809 94.86047613241601C670.959179548352 168.58518024584043 548.5115166353612 377.06601216496915 463.1993099065694 509.1959706785142C377.8871031777777 641.3259291920591 297.07547556451766 747.6493047189244 234.09651149708066 729.0842769974315C171.1175474296437 710.5192492759385 172.1567002004279 520.9584558373324 160.9002823828721 420.0838376153471C149.64386456531628 319.2092193933619 144.45081765844617 300.0457859238338 180.06570597281194 244.88610953190243C215.6805942871777 189.726433139971 235.28312174548023 186.57273122563674 331.8517462918278 155.31739093407703C428.42037083817536 124.0620506425173 616.2310280422098 21.135772018991588 643.5951037952809 94.86047613241601C670.959179548352 168.58518024584043 548.5115166353612 377.06601216496915 463.1993099065694 509.1959706785142 "></path><path d="M621.450091585021 122.60039400709695C646.326524087813 189.62285229202826 535.0104668941849 379.1508813094181 457.453915322556 499.26902541264076C379.8973637509272 619.3871695158633 306.43224773887255 716.0447836311955 249.17864404120263 699.1674857025655C191.92504034353266 682.2901877739355 192.86972468060918 509.962193738839 182.63661757374024 418.25799535521605C172.40351046687135 326.5537969715931 167.68255873335306 309.13249381747676 200.05972992823104 258.98733346117547C232.436901123109 208.84217310487418 250.2573806306567 205.97517136457031 338.04703930915446 177.5612256449706C425.8366979876523 149.14727992537087 596.573659082229 55.57793572216565 621.450091585021 122.60039400709695C646.326524087813 189.62285229202826 535.0104668941849 379.1508813094181 457.453915322556 499.26902541264076 "></path><path d="M599.3050793747611 150.34034239935602C621.6938686272739 210.66055485579415 521.5094171530086 381.2357809714449 451.7085207385426 489.34211066434546C381.90762432407666 597.4484403572458 315.7890199132275 684.4402930610447 264.26077658532455 669.2507249252777C212.73253325742155 654.0611567895107 213.58274916079046 498.96596215792397 204.37295276460844 416.43218361266327C195.16315636842637 333.89840506740256 190.91429980825995 318.2192322286978 220.05375388365013 273.08858790802674C249.1932079590403 227.95794358735554 265.2316395158332 225.377642021082 344.24233232648123 199.80509087344228C423.25302513712927 174.2325397258025 576.9162901222483 90.02012994291783 599.3050793747611 150.34034239935602C621.6938686272739 210.66055485579415 521.5094171530086 381.2357809714449 451.7085207385426 489.34211066434546 "></path><path d="M577.1600824232903 178.08029079161503C597.0612284255238 231.6982574195601 508.00838267062136 383.32068063347197 445.9631414133182 479.41519591605015C383.9179001560152 575.5097111986282 325.1458073463715 652.8358024908939 279.34292438823553 639.33396414799C233.54004143009956 625.832125805086 234.2957888997608 487.9697305770088 226.10930321426565 414.60637187011037C217.9228175287705 341.243013163212 214.1460561419559 327.3059706399189 240.0477930978583 287.1898423548779C265.94953005376067 247.07371406983685 280.2059136597988 244.78011267759376 350.43764060259707 222.04895610191397C420.6693675453953 199.31779952623418 557.2589364210567 124.46232416367002 577.1600824232903 178.08029079161503C597.0612284255238 231.6982574195601 508.00838267062136 383.32068063347197 445.9631414133182 479.41519591605015 "></path><path d="M555.0150702130304 205.82026970145222C572.4285729649847 252.73599050090417 494.50733292944506 385.40561081307703 440.2177468293048 469.48831168533286C385.9281607291647 553.5710125575888 334.50257952072644 621.2313424383212 294.42505693235745 609.4172338882802C254.34753434398846 597.6031253382392 255.00881337994207 476.9735295136718 247.8456384051338 412.7805906451357C240.68246343032558 348.5876517765996 237.37779721686275 336.3927395687181 260.0418170532773 301.29112731930724C282.7058368896919 266.1895150698963 295.18017254497533 264.1826138516836 356.63293361992373 244.2928518479638C418.08569469487225 224.40308984424394 537.601567461076 158.90454890200033 555.0150702130304 205.82026970145222C572.4285729649847 252.73599050090417 494.50733292944506 385.40561081307703 440.2177468293048 469.48831168533286 "></path><path d="M532.8700427439813 233.56023335250035C547.7959022456565 273.7737083234591 481.0062679294797 387.49052573389304 434.47233698650234 459.5614121958266C387.93840604352505 531.6322986577602 343.8593364362923 589.6268671269595 309.5071742176903 579.5004883697815C275.15501199908834 569.3741096126034 275.7218226013343 465.9773131915456 269.5819583372129 410.95479416137186C263.44209407309154 355.9322751311981 260.6095230329806 345.47949323872825 280.03582574990736 315.3923970249475C299.46212846683414 285.3053008111667 310.15441617136275 283.5850997669844 362.82821137846145 266.53673233522454C415.50200658556014 249.48836490346469 517.9441832423062 193.34675838154158 532.8700427439813 233.56023335250035C547.7959022456565 273.7737083234591 481.0062679294797 387.49052573389304 434.47233698650234 459.5614121958266 "></path><path d="M510.7250457925105 261.3001817447594C523.1632620439066 294.81141088722507 467.50523344709245 389.57542539592 428.726957661278 449.6344974475313C389.9486818754636 509.69356949914254 353.2161238694363 558.0223765568087 324.5893220206013 549.5837275924937C295.9625201717663 541.1450786281787 296.4348623403046 454.98108161063044 291.31830878687015 409.12898241881896C286.2017552334357 363.2768832270075 283.84127936667653 354.5662316499493 300.0298649641155 329.49365147179867C316.2184505615545 304.421071293648 325.12869031532836 302.9875704234961 369.0235196545772 288.78059756369623C412.91834899382616 274.57362470389637 498.28682954111446 227.78895260229376 510.7250457925105 261.3001817447594C523.1632620439066 294.81141088722507 467.50523344709245 389.57542539592 428.726957661278 449.6344974475313 "></path><path d="M488.5800335822506 289.0401606545966C498.53060658336744 315.84914396856914 454.00418370591615 391.66035557552505 422.9815630772646 439.70761321681414C391.9589424486131 487.75487085810323 362.5728960437912 526.417916504236 339.67145456472326 519.666997332784C316.77001308565525 512.916078161332 317.14788682048584 443.9848805472934 313.0546439777383 407.30320119384425C308.96140113499075 370.6215218403951 307.0730204415834 363.6530005787485 320.0238889195346 343.594936436228C332.9747573974858 323.53687229370746 340.1029492005049 322.3900715975859 375.218812671904 311.02449330974605C410.3346761433031 299.6589150219061 478.6294605811338 262.2311773406241 488.5800335822506 289.0401606545966C498.53060658336744 315.84914396856914 454.00418370591615 391.66035557552505 422.9815630772646 439.70761321681414 "></path><path d="M466.4350213719907 316.78009378806655C473.89795112282826 336.88683127354597 440.50313396473985 393.7452399787629 417.23616849325117 429.7806832097297C393.9692030217625 465.8161264406965 371.92966821814616 494.81341067529615 354.7535871088452 489.7502212967072C337.57750599954414 484.6870319181181 337.8609113006671 432.9886337075892 334.79097916860644 405.47737419250234C331.72104703654577 377.9661146774155 330.3047615164903 372.73972373118056 340.0179128749537 357.69617562429016C349.7310642334171 342.65262751739976 355.0772080856814 341.7925269953086 381.4141056892307 333.2683432794287C407.75100329278007 324.74415956354875 458.9720916211531 296.6733563025872 466.4350213719907 316.78009378806655C473.89795112282826 336.88683127354597 440.50313396473985 393.7452399787629 417.23616849325117 429.7806832097297 "></path><path d="M444.2900091617308 344.5200879566928C449.2652956622892 357.9245796136791 427.00208422356354 395.83018541715705 411.49077390923776 419.8538142378016C395.979463594912 443.87744305844615 381.2864403925011 463.20896588151254 369.8357196529671 459.83350629578655C358.3849989134331 456.45804671006056 358.5739357808484 421.99244790304124 356.5273143594746 403.6516082263167C354.48069293810084 385.31076854959207 353.53650259139715 381.8265079187688 360.01193683037275 371.7974758475085C366.48737106934834 361.76844377624826 370.0514669708579 361.1950434281875 387.60939870655744 355.51225428426756C405.167330442257 349.8294651403476 439.31472266117237 331.11559629970657 444.2900091617308 344.5200879566928C449.2652956622892 357.9245796136791 427.00208422356354 395.83018541715705 411.49077390923776 419.8538142378016 "></path><path d="M422.1450122102599 372.26003634895187C424.6326554605391 378.962282177445 413.5010497411763 397.915085079184 405.7453945840134 409.92689948950624C397.9897394268505 421.93871389982854 390.64322782564506 431.60447531136174 384.9178674558781 429.9167455184987C379.19250708611105 428.22901572563575 379.2869755198187 410.9962163221261 378.26366480913185 401.8257964837638C377.2403540984449 392.6553766454015 376.7682589250931 390.9132463299899 380.0059760445809 385.8987302943597C383.2436931640687 380.8842142587296 385.02574111482346 380.59751408469924 393.8047069826733 377.75611951273925C402.58367285052304 374.91472494077925 419.6573689599807 365.55779052045875 422.1450122102599 372.26003634895187C424.6326554605391 378.962282177445 413.5010497411763 397.915085079184 405.7453945840134 409.92689948950624 "></path></g></svg>